<svg width="24" height="24" viewBox="0 0 24 24" fill="none" xmlns="http://www.w3.org/2000/svg">
<rect width="24" height="24" fill="#F5F5F5"/>
<rect width="24" height="24" fill="#313030" fill-opacity="0.589"/>
<path d="M12.5 4.13392C12.348 4.04616 12.1755 3.99995 12 3.99995C11.8245 3.99995 11.652 4.04616 11.5 4.13392L4 8.46392V20.8869H8.5V14.8869C8.5 14.6217 8.60536 14.3674 8.79289 14.1798C8.98043 13.9923 9.23478 13.8869 9.5 13.8869H14.5C14.7652 13.8869 15.0196 13.9923 15.2071 14.1798C15.3946 14.3674 15.5 14.6217 15.5 14.8869V20.8869H20V8.46392L12.5 4.13392ZM10.5 2.40192C10.9561 2.13862 11.4734 2 12 2C12.5266 2 13.0439 2.13862 13.5 2.40192L21 6.73192C21.304 6.90746 21.5565 7.15992 21.732 7.46395C21.9076 7.76798 22 8.11286 22 8.46392V21.8869C22 22.1521 21.8946 22.4065 21.7071 22.594C21.5196 22.7816 21.2652 22.8869 21 22.8869H14.5C14.2348 22.8869 13.9804 22.7816 13.7929 22.594C13.6054 22.4065 13.5 22.1521 13.5 21.8869V15.8869H10.5V21.8869C10.5 22.1521 10.3946 22.4065 10.2071 22.594C10.0196 22.7816 9.76522 22.8869 9.5 22.8869H3C2.73478 22.8869 2.48043 22.7816 2.29289 22.594C2.10536 22.4065 2 22.1521 2 21.8869V8.46392C2.00001 8.11286 2.09243 7.76798 2.26796 7.46395C2.4435 7.15992 2.69597 6.90746 3 6.73192L10.5 2.40192Z" fill="#313030" fill-opacity="0.589"/>
</svg>
