<svg width="16" height="16" viewBox="0 0 16 16" fill="none" xmlns="http://www.w3.org/2000/svg">
<rect width="16" height="16" fill="#F5F5F5"/>
<g clip-path="url(#clip0_0_1)">
<path d="M7.19 1C7.18965 0.851546 7.23343 0.706337 7.31576 0.58281C7.3981 0.459283 7.5153 0.363011 7.65246 0.306218C7.78962 0.249424 7.94056 0.234671 8.08613 0.263833C8.23169 0.292994 8.3653 0.364754 8.47 0.47L16 7.99L8.47 15.511C8.34901 15.6404 8.18612 15.7228 8.0102 15.7436C7.83427 15.7644 7.65666 15.7222 7.50884 15.6246C7.36102 15.527 7.25253 15.3802 7.20259 15.2102C7.15265 15.0402 7.16449 14.8581 7.236 14.696C7.27711 14.6041 7.33628 14.5215 7.41 14.453L13.13 8.739H0.75C0.648384 8.74425 0.546762 8.72877 0.451318 8.6935C0.355874 8.65824 0.268606 8.60391 0.194823 8.53385C0.12104 8.46378 0.0622856 8.37943 0.0221365 8.28593C-0.0180127 8.19244 -0.0387173 8.09175 -0.0387173 7.99C-0.0387173 7.88825 -0.0180127 7.78756 0.0221365 7.69407C0.0622856 7.60057 0.12104 7.51622 0.194823 7.44615C0.268606 7.37609 0.355874 7.32176 0.451318 7.2865C0.546762 7.25123 0.648384 7.23575 0.75 7.241H13.13L7.41 1.529C7.34029 1.45946 7.28498 1.37685 7.24723 1.2859C7.20948 1.19496 7.19003 1.09847 7.19 1Z" fill="#D5D5D5"/>
</g>
<defs>
<clipPath id="clip0_0_1">
<rect width="16" height="16" fill="white"/>
</clipPath>
</defs>
</svg>
