<svg width="4" height="5" viewBox="0 0 4 5" fill="none" xmlns="http://www.w3.org/2000/svg">
<path d="M1.875 4.39773C1.53125 4.39773 1.21733 4.31392 0.933239 4.14631C0.649148 3.97585 0.421875 3.74858 0.25142 3.46449C0.0838068 3.1804 0 2.86648 0 2.52273C0 2.17614 0.0838068 1.86222 0.25142 1.58097C0.421875 1.29687 0.649148 1.07102 0.933239 0.903409C1.21733 0.732954 1.53125 0.647727 1.875 0.647727C2.22159 0.647727 2.53551 0.732954 2.81676 0.903409C3.10085 1.07102 3.3267 1.29687 3.49432 1.58097C3.66477 1.86222 3.75 2.17614 3.75 2.52273C3.75 2.86648 3.66477 3.1804 3.49432 3.46449C3.3267 3.74858 3.10085 3.97585 2.81676 4.14631C2.53551 4.31392 2.22159 4.39773 1.875 4.39773Z" fill="white"/>
</svg>
